<svg width="27" height="22" viewBox="0 0 27 22" fill="none" xmlns="http://www.w3.org/2000/svg">
<path d="M16.5313 1.98188L17.1051 1.14738L15.4361 0L14.8624 0.8345L16.5313 1.98188ZM11.6366 0.8345L11.0629 0L9.3939 1.14738L9.96759 1.98188L11.6366 0.8345ZM1.0127 19.9745H0V21.9999H1.0127V19.9745ZM25.4863 21.9999H26.499V19.9745H25.4863V21.9999ZM13.2495 14.8685L14.0822 14.2923L13.2495 13.0891L12.4169 14.2923L13.2495 14.8685ZM3.07091 21.5603L16.5313 1.98188L14.8624 0.8345L1.40188 20.413L3.07091 21.5603ZM9.96759 1.98188L23.4281 21.5603L25.0971 20.413L11.6366 0.8345L9.96759 1.98188ZM1.0127 21.9999H25.4863V19.9745H1.0127V21.9999ZM9.84647 21.5634L14.0822 15.4447L12.4169 14.2923L8.18119 20.4099L9.84647 21.5634ZM12.4169 15.4447L16.6527 21.5634L18.318 20.4099L14.0822 14.2923L12.4169 15.4447Z" fill="#141414"/>
</svg>
