<svg width="45" height="45" viewBox="0 0 45 45" fill="none" xmlns="http://www.w3.org/2000/svg">
<path fill-rule="evenodd" clip-rule="evenodd" d="M22.5 45C34.9264 45 45 34.9264 45 22.5C45 10.0736 34.9264 0 22.5 0C10.0736 0 0 10.0736 0 22.5C0 34.9264 10.0736 45 22.5 45ZM19.9268 15.2958L29.6768 22.0909C29.8792 22.2321 30 22.4639 30 22.7116C30 22.9592 29.8792 23.191 29.6768 23.3329L19.9268 30.1281C19.6972 30.2874 19.3987 30.307 19.152 30.1756C18.9045 30.045 18.75 29.7876 18.75 29.5067V15.9164C18.75 15.6356 18.9045 15.3781 19.152 15.2475C19.2615 15.1901 19.3808 15.1614 19.5 15.1614C19.65 15.1614 19.7985 15.2067 19.9268 15.2958Z" fill="#FAFAFA"/>
</svg>
