<svg width="95" height="83" viewBox="0 0 95 83" fill="none" xmlns="http://www.w3.org/2000/svg">
<g filter="url(#filter0_b_1_1422)">
<mask id="path-1-inside-1_1_1422" fill="white">
<path d="M71.5231 40.3573L36.9884 19.6073C36.5065 19.3196 35.8849 19.2877 35.37 19.5271C34.8567 19.7664 34.5349 20.2367 34.5349 20.7499V62.2499C34.5349 62.7631 34.8567 63.2335 35.3715 63.4728C35.6007 63.5807 35.8535 63.6332 36.1046 63.6332C36.4139 63.6332 36.7231 63.5516 36.9884 63.3925L71.5231 42.6426C71.9516 42.3853 72.2091 41.9578 72.2091 41.4999C72.2091 41.042 71.9516 40.6146 71.5231 40.3573ZM37.6744 59.6313V23.3686L67.853 41.4999L37.6744 59.6313Z"/>
</mask>
<path d="M71.5231 40.3573L36.9884 19.6073C36.5065 19.3196 35.8849 19.2877 35.37 19.5271C34.8567 19.7664 34.5349 20.2367 34.5349 20.7499V62.2499C34.5349 62.7631 34.8567 63.2335 35.3715 63.4728C35.6007 63.5807 35.8535 63.6332 36.1046 63.6332C36.4139 63.6332 36.7231 63.5516 36.9884 63.3925L71.5231 42.6426C71.9516 42.3853 72.2091 41.9578 72.2091 41.4999C72.2091 41.042 71.9516 40.6146 71.5231 40.3573ZM37.6744 59.6313V23.3686L67.853 41.4999L37.6744 59.6313Z" fill="white"/>
<path d="M71.5231 40.3573L69.7019 43.3883L69.7029 43.3889L71.5231 40.3573ZM36.9884 19.6073L38.8096 16.5763L38.8011 16.5712L36.9884 19.6073ZM35.37 19.5271L33.8795 16.3205L33.8758 16.3222L35.37 19.5271ZM35.3715 63.4728L36.8777 60.2736L36.8699 60.2698L36.862 60.2662L35.3715 63.4728ZM36.9884 63.3925L38.8069 66.4251L38.8096 66.4236L36.9884 63.3925ZM71.5231 42.6426L69.7029 39.611L69.7019 39.6115L71.5231 42.6426ZM37.6744 59.6313H34.1383V65.8809L39.4954 62.6623L37.6744 59.6313ZM37.6744 23.3686L39.4954 20.3375L34.1383 17.1189V23.3686H37.6744ZM67.853 41.4999L69.6741 44.531L74.7191 41.4999L69.6741 38.4689L67.853 41.4999ZM73.3443 37.3263L38.8096 16.5763L35.1672 22.6383L69.7019 43.3883L73.3443 37.3263ZM38.8011 16.5712C37.3069 15.6791 35.4481 15.5914 33.8795 16.3205L36.8604 22.7337C36.3216 22.9841 35.7061 22.96 35.1757 22.6434L38.8011 16.5712ZM33.8758 16.3222C32.2838 17.0644 30.9988 18.6873 30.9988 20.7499H38.0709C38.0709 21.7861 37.4295 22.4683 36.8641 22.7319L33.8758 16.3222ZM30.9988 20.7499V62.2499H38.0709V20.7499H30.9988ZM30.9988 62.2499C30.9988 64.3144 32.286 65.938 33.8811 66.6794L36.862 60.2662C37.4274 60.529 38.0709 61.2119 38.0709 62.2499H30.9988ZM33.8654 66.672C34.5965 67.0162 35.3679 67.1693 36.1046 67.1693V60.0972C36.339 60.0972 36.6049 60.1451 36.8777 60.2736L33.8654 66.672ZM36.1046 67.1693C37.0237 67.1693 37.9665 66.9291 38.8069 66.4251L35.1699 60.36C35.4797 60.1741 35.804 60.0972 36.1046 60.0972V67.1693ZM38.8096 66.4236L73.3443 45.6736L69.7019 39.6115L35.1672 60.3615L38.8096 66.4236ZM73.3433 45.6742C74.7128 44.8519 75.7451 43.3372 75.7451 41.4999H68.673C68.673 40.5784 69.1905 39.9186 69.7029 39.611L73.3433 45.6742ZM75.7451 41.4999C75.7451 39.6626 74.7128 38.1479 73.3433 37.3257L69.7029 43.3889C69.1905 43.0812 68.673 42.4215 68.673 41.4999H75.7451ZM41.2104 59.6313V23.3686H34.1383V59.6313H41.2104ZM35.8533 26.3996L66.0319 44.531L69.6741 38.4689L39.4954 20.3375L35.8533 26.3996ZM66.0319 38.4689L35.8533 56.6002L39.4954 62.6623L69.6741 44.531L66.0319 38.4689Z" fill="white" mask="url(#path-1-inside-1_1_1422)"/>
<mask id="path-3-inside-2_1_1422" fill="white">
<path d="M47.0928 0C21.1258 0 0 18.6169 0 41.5C0 64.3831 21.1258 83 47.0928 83C73.0597 83 94.1855 64.3831 94.1855 41.5C94.1855 18.6169 73.0597 0 47.0928 0ZM47.0928 80.2333C22.8573 80.2333 3.13952 62.8573 3.13952 41.5C3.13952 20.1427 22.8573 2.76667 47.0928 2.76667C71.3283 2.76667 91.046 20.1427 91.046 41.5C91.046 62.8573 71.3283 80.2333 47.0928 80.2333Z"/>
</mask>
<path d="M47.0928 0C21.1258 0 0 18.6169 0 41.5C0 64.3831 21.1258 83 47.0928 83C73.0597 83 94.1855 64.3831 94.1855 41.5C94.1855 18.6169 73.0597 0 47.0928 0ZM47.0928 80.2333C22.8573 80.2333 3.13952 62.8573 3.13952 41.5C3.13952 20.1427 22.8573 2.76667 47.0928 2.76667C71.3283 2.76667 91.046 20.1427 91.046 41.5C91.046 62.8573 71.3283 80.2333 47.0928 80.2333Z" fill="white"/>
<path d="M47.0928 -3.53605C19.6062 -3.53605 -3.53605 16.2571 -3.53605 41.5H3.53605C3.53605 20.9766 22.6454 3.53605 47.0928 3.53605V-3.53605ZM-3.53605 41.5C-3.53605 66.7428 19.6062 86.536 47.0928 86.536V79.4639C22.6454 79.4639 3.53605 62.0233 3.53605 41.5H-3.53605ZM47.0928 86.536C74.5793 86.536 97.7216 66.7428 97.7216 41.5H90.6495C90.6495 62.0233 71.5402 79.4639 47.0928 79.4639V86.536ZM97.7216 41.5C97.7216 16.2571 74.5793 -3.53605 47.0928 -3.53605V3.53605C71.5402 3.53605 90.6495 20.9766 90.6495 41.5H97.7216ZM47.0928 76.6972C24.3768 76.6972 6.67557 60.4975 6.67557 41.5H-0.396535C-0.396535 65.217 21.3377 83.7693 47.0928 83.7693V76.6972ZM6.67557 41.5C6.67557 22.5025 24.3768 6.30272 47.0928 6.30272V-0.769388C21.3377 -0.769388 -0.396535 17.783 -0.396535 41.5H6.67557ZM47.0928 6.30272C69.8087 6.30272 87.51 22.5025 87.51 41.5H94.5821C94.5821 17.783 72.8479 -0.769388 47.0928 -0.769388V6.30272ZM87.51 41.5C87.51 60.4975 69.8087 76.6972 47.0928 76.6972V83.7693C72.8479 83.7693 94.5821 65.217 94.5821 41.5H87.51Z" fill="white" mask="url(#path-3-inside-2_1_1422)"/>
</g>
<defs>
<filter id="filter0_b_1_1422" x="-20.0293" y="-20.0293" width="134.244" height="123.059" filterUnits="userSpaceOnUse" color-interpolation-filters="sRGB">
<feFlood flood-opacity="0" result="BackgroundImageFix"/>
<feGaussianBlur in="BackgroundImageFix" stdDeviation="10"/>
<feComposite in2="SourceAlpha" operator="in" result="effect1_backgroundBlur_1_1422"/>
<feBlend mode="normal" in="SourceGraphic" in2="effect1_backgroundBlur_1_1422" result="shape"/>
</filter>
</defs>
</svg>
