<svg width="77" height="25" viewBox="0 0 77 25" fill="none" xmlns="http://www.w3.org/2000/svg">
<path d="M5.775 0H21.175C24.3743 0 26.95 2.17642 26.95 4.87987V14.6396C26.95 17.3431 24.3743 19.5195 21.175 19.5195H5.775C2.57565 19.5195 0 17.3431 0 14.6396V4.87987C0 2.17642 2.57565 0 5.775 0ZM5.775 4.87987H71.225C74.4243 4.87987 77 7.0563 77 9.75975V19.5195C77 22.2229 74.4243 24.3994 71.225 24.3994H5.775C2.57565 24.3994 0 22.2229 0 19.5195V9.75975C0 7.0563 2.57565 4.87987 5.775 4.87987Z" fill="#1976D2"/>
</svg>
