<svg width="26" height="22" viewBox="0 0 26 22" fill="none" xmlns="http://www.w3.org/2000/svg">
<path d="M18.2 7.7H14.3V13.75C14.3 14.4793 13.9576 15.1789 13.3481 15.6948C12.7386 16.2107 11.9119 16.5 11.05 16.5C10.1881 16.5 9.36143 16.2107 8.75186 15.6948C8.14242 15.1789 7.8 14.4793 7.8 13.75C7.8 13.0207 8.14242 12.3211 8.75186 11.8052C9.36143 11.2893 10.1881 11 11.05 11C11.791 11 12.454 11.209 13 11.55V5.5H18.2V7.7ZM13 0C14.7072 0 16.3977 0.284885 17.9748 0.837085C19.5521 1.39039 20.9852 2.19998 22.1924 3.22188C23.3996 4.24378 24.3571 5.456 25.0104 6.7903C25.6637 8.12461 26 9.5557 26 11C26 13.9172 24.6303 16.7156 22.1924 18.7781C19.7544 20.8406 16.4479 22 13 22C11.2928 22 9.60232 21.7151 8.02516 21.1629C6.44787 20.6096 5.01475 19.8 3.80757 18.7781C1.36968 16.7156 0 13.9172 0 11C0 8.0828 1.36968 5.28438 3.80757 3.22188C6.24559 1.15938 9.55214 0 13 0ZM13 2.2C10.2418 2.2 7.59642 3.12729 5.64603 4.77729C3.69577 6.42729 2.6 8.6658 2.6 11C2.6 13.3342 3.69577 15.5727 5.64603 17.2227C7.59642 18.8727 10.2418 19.8 13 19.8C15.7582 19.8 18.4036 18.8727 20.354 17.2227C22.3042 15.5727 23.4 13.3342 23.4 11C23.4 8.6658 22.3042 6.42729 20.354 4.77729C18.4036 3.12729 15.7582 2.2 13 2.2Z" fill="#141414"/>
</svg>
