<svg width="23" height="23" viewBox="0 0 23 23" fill="none" xmlns="http://www.w3.org/2000/svg">
<path d="M16.1 8.05H12.65V14.375C12.65 15.1374 12.3471 15.8689 11.808 16.4082C11.2687 16.9476 10.5374 17.25 9.775 17.25C9.01255 17.25 8.28127 16.9476 7.74203 16.4082C7.20291 15.8689 6.9 15.1374 6.9 14.375C6.9 13.6125 7.20291 12.8811 7.74203 12.3418C8.28127 11.8024 9.01255 11.5 9.775 11.5C10.4305 11.5 11.017 11.7185 11.5 12.075V5.75H16.1V8.05ZM11.5 0C13.0102 0 14.5056 0.297852 15.9008 0.875152C17.2961 1.4536 18.5639 2.3 19.6318 3.36835C20.6997 4.4367 21.5466 5.704 22.1246 7.09895C22.7025 8.49391 23 9.99005 23 11.5C23 14.5498 21.7884 17.4754 19.6318 19.6316C17.4751 21.7879 14.55 23 11.5 23C9.98982 23 8.49436 22.7021 7.09918 22.1248C5.70388 21.5464 4.43613 20.7 3.36824 19.6316C1.21164 17.4754 0 14.5498 0 11.5C0 8.4502 1.21164 5.5246 3.36824 3.36835C5.52495 1.2121 8.44997 0 11.5 0ZM11.5 2.3C9.06004 2.3 6.71991 3.26945 4.99457 4.99445C3.26934 6.71945 2.3 9.0597 2.3 11.5C2.3 13.9403 3.26934 16.2805 4.99457 18.0055C6.71991 19.7305 9.06004 20.7 11.5 20.7C13.94 20.7 16.2801 19.7305 18.0054 18.0055C19.7307 16.2805 20.7 13.9403 20.7 11.5C20.7 9.0597 19.7307 6.71945 18.0054 4.99445C16.2801 3.26945 13.94 2.3 11.5 2.3Z" fill="#141414"/>
</svg>
