<svg width="25" height="22" viewBox="0 0 25 22" fill="none" xmlns="http://www.w3.org/2000/svg">
<path d="M24.3951 4.39803C24.0073 3.53744 23.4479 2.75712 22.7485 2.10149C22.0485 1.44463 21.2234 0.921107 20.3177 0.563042C19.3786 0.188926 18.3713 -0.00244582 17.3544 2.35969e-05C15.9277 2.35969e-05 14.5358 0.374111 13.3262 1.0816C13.0368 1.25075 12.7618 1.43598 12.5014 1.63847C12.241 1.43598 11.966 1.25075 11.6766 1.0816C10.467 0.374111 9.0751 2.35969e-05 7.64839 2.35969e-05C6.62111 2.35969e-05 5.62557 0.187691 4.68509 0.563042C3.77647 0.923576 2.9575 1.44216 2.25433 2.10149C1.554 2.75588 0.994555 3.5362 0.607721 4.39803C0.205454 5.29319 0 6.24515 0 7.22427C0 8.14783 0.196812 9.10968 0.587473 10.0888C0.914423 10.9062 1.38324 11.7557 1.98232 12.6125C2.93144 13.9683 4.23652 15.3832 5.85708 16.8167C8.54256 19.1935 11.2021 20.8357 11.315 20.9011L12.0007 21.3234C12.3046 21.5086 12.6953 21.5086 12.9991 21.3234L13.685 20.9011C13.7978 20.832 16.4544 19.1935 19.1428 16.8167C20.7633 15.3832 22.0684 13.9683 23.0177 12.6125C23.6166 11.7557 24.0884 10.9062 24.4125 10.0888C24.8032 9.10968 25 8.14783 25 7.22427C25.0028 6.24515 24.7974 5.29319 24.3951 4.39803ZM12.5014 19.1293C12.5014 19.1293 2.19926 12.8039 2.19926 7.22427C2.19926 4.39803 4.63879 2.10767 7.64839 2.10767C9.76381 2.10767 11.5985 3.23863 12.5014 4.8919C13.4042 3.23863 15.239 2.10767 17.3544 2.10767C20.364 2.10767 22.8034 4.39803 22.8034 7.22427C22.8034 12.8039 12.5014 19.1293 12.5014 19.1293Z" fill="black"/>
</svg>
