<svg width="24" height="24" viewBox="0 0 24 24" fill="none" xmlns="http://www.w3.org/2000/svg">
<path d="M21.8182 7.06638V15.816C20.9863 15.4352 20.0192 15.2826 19.0668 15.3821C18.1144 15.4815 17.23 15.8273 16.5508 16.366C15.8716 16.904 15.4354 17.606 15.3101 18.361C15.1847 19.116 15.3771 19.882 15.8574 20.542C16.3377 21.202 17.0791 21.717 17.9665 22.009C18.854 22.3 19.838 22.351 20.7658 22.154C21.6937 21.957 22.5136 21.522 23.0983 20.918C23.6831 20.314 24 19.574 24 18.812V1.38548C24.0003 1.16348 23.9333 0.944577 23.8045 0.747377C23.6757 0.550277 23.4889 0.380579 23.26 0.252679C23.031 0.124679 22.7666 0.0423821 22.4891 0.0125821C22.2116 -0.0173179 21.9291 0.00627795 21.6655 0.0811779L7.70182 4.03558C7.36332 4.13188 7.07052 4.30868 6.86362 4.54178C6.65662 4.77498 6.54552 5.05308 6.54552 5.33818V17.544C5.71362 17.163 4.74662 17.011 3.79432 17.11C2.84202 17.21 1.95772 17.555 1.27852 18.094C0.599216 18.632 0.163016 19.333 0.0374156 20.088C-0.0880844 20.843 0.104115 21.61 0.584115 22.269C1.06422 22.929 1.80532 23.445 2.69262 23.736C3.57982 24.028 4.56372 24.079 5.49152 23.882C6.41942 23.686 7.23942 23.252 7.82442 22.648C8.40952 22.044 8.72682 21.303 8.72731 20.542V10.7734L21.8182 7.06808V7.06638ZM21.8182 5.22918L8.72731 8.93458V5.58038L21.8182 1.87328V5.22748V5.22918ZM19.6364 17.082C20.215 17.082 20.77 17.264 21.1791 17.589C21.5883 17.913 21.8182 18.353 21.8182 18.812C21.8182 19.271 21.5883 19.711 21.1791 20.035C20.77 20.36 20.215 20.542 19.6364 20.542C19.0577 20.542 18.5028 20.36 18.0936 20.035C17.6844 19.711 17.4545 19.271 17.4545 18.812C17.4545 18.353 17.6844 17.913 18.0936 17.589C18.5028 17.264 19.0577 17.082 19.6364 17.082ZM4.36362 18.812C4.94232 18.812 5.49721 18.994 5.90641 19.319C6.31562 19.643 6.54552 20.083 6.54552 20.542C6.54552 21.001 6.31562 21.441 5.90641 21.765C5.49721 22.09 4.94232 22.272 4.36362 22.272C3.78502 22.272 3.23002 22.09 2.82092 21.765C2.41172 21.441 2.18182 21.001 2.18182 20.542C2.18182 20.083 2.41172 19.643 2.82092 19.319C3.23002 18.994 3.78502 18.812 4.36362 18.812Z" fill="#141414"/>
</svg>
