<svg width="25" height="21" viewBox="0 0 25 21" fill="none" xmlns="http://www.w3.org/2000/svg">
<path fill-rule="evenodd" clip-rule="evenodd" d="M12.5 0C13.3284 0 14 0.672 14 1.5V19.5C14 20.328 13.3284 21 12.5 21C11.6716 21 11 20.328 11 19.5V1.5C11 0.672 11.6716 0 12.5 0ZM7 3.375C7.8284 3.375 8.5 4.047 8.5 4.875V16.125C8.5 16.953 7.8284 17.625 7 17.625C6.1716 17.625 5.5 16.953 5.5 16.125V4.875C5.5 4.047 6.1716 3.375 7 3.375ZM18 3.375C18.8284 3.375 19.5 4.047 19.5 4.875V16.125C19.5 16.953 18.8284 17.625 18 17.625C17.1716 17.625 16.5 16.953 16.5 16.125V4.875C16.5 4.047 17.1716 3.375 18 3.375ZM1.5 6.75C2.3284 6.75 3 7.422 3 8.25V12.75C3 13.578 2.3284 14.25 1.5 14.25C0.6716 14.25 0 13.578 0 12.75V8.25C0 7.422 0.6716 6.75 1.5 6.75ZM23.5 6.75C24.3284 6.75 25 7.422 25 8.25V12.75C25 13.578 24.3284 14.25 23.5 14.25C22.6716 14.25 22 13.578 22 12.75V8.25C22 7.422 22.6716 6.75 23.5 6.75Z" fill="black" fill-opacity="0.75"/>
</svg>
